<svg width="1600" height="1600" viewBox="0 0 1600 1600" fill="none" xmlns="http://www.w3.org/2000/svg">
  <circle cx="800" cy="800" r="800" fill="#DC2626"/>
  <path d="M691.667 258.333V691.667L854.167 529.167L1016.67 691.667V258.333" stroke="white" stroke-width="50" stroke-linecap="round" stroke-linejoin="round"/>
  <path d="M366.667 1206.25V393.75C366.667 357.835 380.934 323.392 406.329 297.996C431.725 272.6 466.169 258.333 502.083 258.333H1179.17C1193.53 258.333 1207.31 264.04 1217.47 274.198C1227.63 284.357 1233.33 298.134 1233.33 312.5V1287.5C1233.33 1301.87 1227.63 1315.64 1217.47 1325.8C1207.31 1335.96 1193.53 1341.67 1179.17 1341.67H502.083C466.169 1341.67 431.725 1327.4 406.329 1302C380.934 1276.61 366.667 1242.16 366.667 1206.25ZM366.667 1206.25C366.667 1170.34 380.934 1135.89 406.329 1110.5C431.725 1085.1 466.169 1070.83 502.083 1070.83H1233.33" stroke="white" stroke-width="50" stroke-linecap="round" stroke-linejoin="round"/>
</svg>
